<svg xmlns="http://www.w3.org/2000/svg" version="1.1" xmlns:xlink="http://www.w3.org/1999/xlink" width="67.67" height="67.67"><svg xmlns="http://www.w3.org/2000/svg" version="1.1" xmlns:xlink="http://www.w3.org/1999/xlink" width="67.67" height="67.67"><svg id="Layer_3" data-name="Layer 3" xmlns="http://www.w3.org/2000/svg" xmlns:xlink="http://www.w3.org/1999/xlink" viewBox="0 0 67.67 67.67">
  <defs>
    <style>
      .cls-1 {
        fill: none;
      }

      .cls-2 {
        fill: url(#linear-gradient);
      }

      .cls-3 {
        clip-path: url(#clippath-1);
      }

      .cls-4 {
        clip-path: url(#clippath-2);
      }

      .cls-5 {
        clip-path: url(#clippath);
      }

      .cls-6 {
        fill: #e7e5e9;
      }
    </style>
    <clipPath id="clippath">
      <rect class="cls-1" width="67.67" height="67.67" rx="9.89" ry="9.89"></rect>
    </clipPath>
    <linearGradient id="linear-gradient" x1="-472.89" y1="162.8" x2="-471.89" y2="162.8" gradientTransform="translate(-14213.5 41374.45) rotate(90) scale(87.51 -87.51)" gradientUnits="userSpaceOnUse">
      <stop offset="0" stop-color="#ff6b6b"></stop>
      <stop offset="1" stop-color="#845ef7"></stop>
    </linearGradient>
    <clipPath id="clippath-1">
      <path class="cls-6" d="M13.55,33.84c0-6.56,5.32-11.88,11.88-11.88s11.88,5.32,11.88,11.88-5.32,11.88-11.88,11.88-11.88-5.32-11.88-11.88M8.63,33.84c0,9.28,7.52,16.8,16.8,16.8s16.8-7.52,16.8-16.8-7.52-16.8-16.8-16.8-16.8,7.52-16.8,16.8"></path>
    </clipPath>
    <clipPath id="clippath-2">
      <path class="cls-6" d="M30.36,33.84c0-6.56,5.32-11.88,11.88-11.88s11.88,5.32,11.88,11.88-5.32,11.88-11.88,11.88-11.88-5.32-11.88-11.88M25.44,33.84c0,9.28,7.52,16.8,16.8,16.8s16.8-7.52,16.8-16.8-7.52-16.8-16.8-16.8-16.8,7.52-16.8,16.8"></path>
    </clipPath>
  </defs>
  <g id="Layer_1" data-name="Layer 1">
    <g>
      <g class="cls-5">
        <rect class="cls-2" x="-14.02" y="-14.02" width="95.7" height="95.7" transform="translate(-14.02 33.84) rotate(-45)"></rect>
      </g>
      <g>
        <g>
          <path class="cls-6" d="M13.55,33.84c0-6.56,5.32-11.88,11.88-11.88s11.88,5.32,11.88,11.88-5.32,11.88-11.88,11.88-11.88-5.32-11.88-11.88M8.63,33.84c0,9.28,7.52,16.8,16.8,16.8s16.8-7.52,16.8-16.8-7.52-16.8-16.8-16.8-16.8,7.52-16.8,16.8"></path>
          <g class="cls-3">
            <rect class="cls-6" x="1.67" y="10.08" width="47.52" height="47.52" transform="translate(-16.48 27.9) rotate(-45)"></rect>
          </g>
        </g>
        <g>
          <path class="cls-6" d="M30.36,33.84c0-6.56,5.32-11.88,11.88-11.88s11.88,5.32,11.88,11.88-5.32,11.88-11.88,11.88-11.88-5.32-11.88-11.88M25.44,33.84c0,9.28,7.52,16.8,16.8,16.8s16.8-7.52,16.8-16.8-7.52-16.8-16.8-16.8-16.8,7.52-16.8,16.8"></path>
          <g class="cls-4">
            <rect class="cls-6" x="18.48" y="10.08" width="47.52" height="47.52" transform="translate(-11.56 39.78) rotate(-45)"></rect>
          </g>
        </g>
      </g>
    </g>
  </g>
</svg></svg><style>@media (prefers-color-scheme: light) { :root { filter: none; } }
@media (prefers-color-scheme: dark) { :root { filter: none; } }
</style></svg>